<?xml version="1.0" standalone="no"?>
<!DOCTYPE svg PUBLIC "-//W3C//DTD SVG 20010904//EN"
 "http://www.w3.org/TR/2001/REC-SVG-20010904/DTD/svg10.dtd">
<svg version="1.0" xmlns="http://www.w3.org/2000/svg"
 width="192.000000pt" height="192.000000pt" viewBox="0 0 192.000000 192.000000"
 preserveAspectRatio="xMidYMid meet">

<g transform="translate(0.000000,192.000000) scale(0.100000,-0.100000)"
fill="#000000" stroke="none">
<path d="M636 1120 c-57 -51 -60 -125 -5 -179 74 -75 194 -33 206 72 13 115
-114 183 -201 107z m42 -53 c2 -12 -3 -17 -17 -17 -15 0 -21 6 -21 21 0 25 33
22 38 -4z m108 12 c3 -6 -1 -18 -10 -27 -15 -15 -17 -15 -32 0 -19 19 -11 38
16 38 10 0 22 -5 26 -11z m-61 -59 c15 -17 16 -24 7 -45 -15 -32 -37 -41 -68
-27 -17 8 -24 20 -24 40 0 52 50 71 85 32z"/>
<path d="M1133 1126 c-18 -15 -37 -42 -43 -61 -6 -19 -18 -35 -26 -35 -8 0
-17 -7 -20 -15 -4 -8 -17 -15 -30 -15 -14 0 -27 7 -30 15 -4 8 -13 15 -20 15
-8 0 -17 -7 -20 -15 -4 -8 -17 -15 -30 -15 -14 0 -27 7 -30 15 -6 15 -34 21
-34 7 0 -4 7 -18 16 -30 16 -24 53 -29 84 -12 13 7 21 7 25 0 11 -18 64 -11
86 11 11 11 21 19 22 17 31 -60 44 -77 72 -92 46 -25 98 -15 142 29 29 29 33
40 33 84 0 42 -5 56 -28 82 -24 27 -38 33 -83 37 -48 4 -59 1 -86 -22z m37
-56 c0 -13 -7 -20 -20 -20 -19 0 -27 20 -13 33 13 14 33 6 33 -13z m106 9 c8
-14 -21 -43 -35 -35 -6 4 -11 16 -11 27 0 21 34 27 46 8z m-62 -55 c21 -20 20
-43 -1 -66 -31 -35 -83 -12 -83 37 0 40 54 59 84 29z"/>
</g>
</svg>
